HIERARCHY
ROOT Hips
{
	OFFSET -3.958830 18.904000 13.208200
	CHANNELS 6 Xposition Yposition Zposition Zrotation Yrotation Xrotation 
	JOINT LHipJoint
	{
		OFFSET 0.000000 0.000000 0.000000
		CHANNELS 3 Zrotation Yrotation Xrotation
		JOINT LeftUpLeg
		{
			OFFSET 1.800000 -1.400000 0.085000
			CHANNELS 3 Zrotation Yrotation Xrotation
			JOINT LeftLeg
			{
				OFFSET 2.215000 -6.000000 0.000000
				CHANNELS 3 Zrotation Yrotation Xrotation
				JOINT LeftFoot
				{
					OFFSET 2.500000 -6.900000 0.000000
					CHANNELS 3 Zrotation Yrotation Xrotation
					JOINT LeftToeBase
					{
						OFFSET 0.200000 -0.500000 1.950000
						CHANNELS 3 Zrotation Yrotation Xrotation
						End Site
						{
							OFFSET 0.000000 0.000000 0.000000
						}
					}
				}
			}
		}
	}
	JOINT RHipJoint
	{
		OFFSET 0.000000 0.000000 0.000000
		CHANNELS 3 Zrotation Yrotation Xrotation
		JOINT RightUpLeg
		{
			OFFSET -1.800000 -1.400000 0.085000
			CHANNELS 3 Zrotation Yrotation Xrotation
			JOINT RightLeg
			{
				OFFSET -2.215000 -6.000000 0.000000
				CHANNELS 3 Zrotation Yrotation Xrotation
				JOINT RightFoot
				{
					OFFSET -2.500000 -6.900000 0.000000
					CHANNELS 3 Zrotation Yrotation Xrotation
					JOINT RightToeBase
					{
						OFFSET -0.200000 -0.500000 1.950000
						CHANNELS 3 Zrotation Yrotation Xrotation
						End Site
						{
							OFFSET 0.000000 0.000000 0.000000
						}
					}
				}
			}
		}
	}
	JOINT LowerBack
	{
		OFFSET 0.000000 0.000000 0.000000
		CHANNELS 3 Zrotation Yrotation Xrotation
		JOINT Spine
		{
			OFFSET -0.087000 1.940000 -0.288900
			CHANNELS 3 Zrotation Yrotation Xrotation
			JOINT Spine1
			{
				OFFSET 0.000000 1.950000 0.060000
				CHANNELS 3 Zrotation Yrotation Xrotation
				JOINT Neck
				{
					OFFSET 0.000000 0.000000 0.000000
					CHANNELS 3 Zrotation Yrotation Xrotation
					JOINT Neck1
					{
						OFFSET 0.000000 1.600000 0.340000
						CHANNELS 3 Zrotation Yrotation Xrotation
						JOINT Head
						{
							OFFSET 0.000000 1.667000 -0.240000
							CHANNELS 3 Zrotation Yrotation Xrotation
							End Site
							{
								OFFSET 0.000000 0.000000 0.000000
							}
						}
					}
				}
				JOINT LeftShoulder
				{
					OFFSET 0.000000 0.000000 0.000000
					CHANNELS 3 Zrotation Yrotation Xrotation
					JOINT LeftArm
					{
						OFFSET 2.700000 1.550000 -0.730000
						CHANNELS 3 Zrotation Yrotation Xrotation
						JOINT LeftForeArm
						{
							OFFSET 5.450000 0.000000 0.000000
							CHANNELS 3 Zrotation Yrotation Xrotation
							JOINT LeftHand
							{
								OFFSET 3.450000 0.000000 0.000000
								CHANNELS 3 Zrotation Yrotation Xrotation
								JOINT LeftHandIndex1
								{
									OFFSET 0.750000 0.000000 0.000000
									CHANNELS 3 Zrotation Yrotation Xrotation
									End Site
									{
										OFFSET 0.000000 0.000000 0.000000
									}
								}
							}
						}
					}
				}
				JOINT RightShoulder
				{
					OFFSET 0.000000 0.000000 0.000000
					CHANNELS 3 Zrotation Yrotation Xrotation
					JOINT RightArm
					{
						OFFSET -2.700000 1.550000 -0.730000
						CHANNELS 3 Zrotation Yrotation Xrotation
						JOINT RightForeArm
						{
							OFFSET -5.450000 0.000000 0.000000
							CHANNELS 3 Zrotation Yrotation Xrotation
							JOINT RightHand
							{
								OFFSET -3.450000 0.000000 0.000000
								CHANNELS 3 Zrotation Yrotation Xrotation
								JOINT RightHandIndex1
								{
									OFFSET -0.750000 0.000000 0.000000
									CHANNELS 3 Zrotation Yrotation Xrotation
									End Site
									{
										OFFSET 0.000000 0.000000 0.000000
									}
								}
							}
						}
					}
				}
			}
		}
	}
}
MOTION
Frames: 8
Frame Time: 0.016667
0.088140 17.845890 -0.910170 -2.819752 -2.532533 -2.563142 -15.086139 13.462545 2.654528 5.230637 -0.898805 -10.482065 -6.859682 6.439996 15.366540 -0.360095 4.562199 3.141915 -0.004860 -0.075750 -0.064270 18.319236 -11.077256 2.779891 -2.479762 -0.062127 -7.630560 6.815311 -5.051034 11.529875 0.019758 -4.032650 3.058894 0.149800 0.673800 0.215520 -3.711668 -1.591954 -7.047999 10.886326 0.214900 7.808772 -1.435009 0.564583 11.934265 1.601041 -2.269093 -10.188384 -4.866096 2.083177 27.363275 -6.246760 3.299920 2.249290 -1.488487 -12.453932 3.608930 5.165510 -18.397676 -3.392611 94.587128 -27.375262 -28.878699 -4.305844 2.953504 -0.106110 0.566560 -0.376580 0.122350 -1.403106 14.356911 6.129982 -4.745844 7.174719 -8.013932 -95.124056 26.834110 -30.532204 2.071551 -2.035053 -0.277810 0.208090 0.156600 0.035720 
0.088030 17.859270 -0.911100 -2.774045 -2.643331 -2.626582 -15.083057 13.456324 2.654488 5.141728 -0.822486 -10.098575 -6.828218 6.345499 14.835862 -0.344670 4.501691 3.160267 0.008590 -0.046870 -0.068400 18.326615 -11.060143 2.800101 -2.445154 -0.158028 -7.198484 6.660164 -4.918034 10.755431 0.006075 -4.010667 3.068239 0.158820 0.659550 0.208210 -3.725504 -1.609470 -7.066391 11.044521 0.160802 8.007488 -1.625699 0.555711 11.987051 1.531714 -2.493266 -10.254417 -5.279376 2.267590 27.445337 -5.768350 3.127310 1.933390 -1.278248 -12.366480 3.664715 5.073423 -18.062757 -3.544917 94.962103 -26.740659 -28.555920 -4.285880 2.974968 -0.107620 0.548120 -0.362520 0.130120 -1.488522 14.438267 6.174978 -4.700826 6.986610 -8.128875 -95.988553 26.373167 -30.656686 2.087477 -2.049144 -0.264220 0.207300 0.144320 0.047480 
0.081260 17.886290 -0.915640 -2.705344 -2.825156 -2.926257 -15.081429 13.456833 2.661576 5.104085 -0.672093 -9.265866 -6.843586 6.221702 13.916177 -0.306715 4.417823 3.177013 0.039580 -0.002480 -0.049230 18.333184 -11.019015 2.847846 -2.360502 -0.344699 -6.244024 6.479072 -4.731472 9.390758 -0.036097 -3.981306 3.070384 0.160310 0.609290 0.201660 -3.734637 -1.676302 -7.128928 11.299568 0.064387 8.686937 -2.016168 0.607833 12.110058 1.476077 -2.917086 -10.495933 -6.143687 2.489560 27.926315 -5.043510 2.812950 1.041650 -0.858983 -12.418443 3.804803 5.249518 -17.261742 -3.977710 95.527445 -25.476124 -27.804363 -4.238394 3.014063 -0.091290 0.496070 -0.321200 0.129640 -1.820313 14.843715 6.405850 -4.718904 6.278931 -8.517903 -97.192433 25.350561 -30.491552 2.130518 -2.070260 -0.230130 0.192730 0.120510 0.057320 
0.077920 17.910680 -0.913630 -2.806401 -2.896598 -2.761028 -15.083515 13.443370 2.679556 5.147553 -0.602990 -8.812699 -6.886285 6.041073 12.751766 -0.316334 4.342275 3.203216 0.054040 -0.020190 -0.022130 18.338134 -10.954336 2.914243 -1.993664 -0.451735 -5.581436 6.233618 -4.512212 7.733941 -0.073033 -3.919507 3.102138 0.131740 0.572600 0.203370 -3.737235 -1.747643 -7.213934 11.552841 0.000797 8.977491 -2.259706 0.628801 11.635963 1.581396 -2.991101 -10.727949 -6.481855 2.702357 28.879600 -4.647210 2.826100 0.357250 -1.223503 -12.662085 3.899473 6.840724 -15.569414 -4.206382 96.120918 -24.993631 -27.225498 -4.199703 3.002242 -0.023440 0.452750 -0.289240 0.125810 -1.679372 15.130582 6.656227 -5.140111 5.102986 -8.731693 -98.134429 24.752869 -30.143005 2.144720 -2.052676 -0.230020 0.185520 0.115130 0.034870 
0.069950 17.936350 -0.915110 -2.816138 -3.011758 -2.601816 -15.086679 13.432359 2.709267 5.139389 -0.526881 -8.316734 -6.950545 5.857936 11.514411 -0.316717 4.261950 3.215679 0.064700 -0.023600 0.012560 18.341228 -10.889431 2.972810 -1.664281 -0.538872 -4.999670 5.881784 -4.293635 6.311833 -0.114461 -3.854347 3.100431 0.114790 0.513410 0.204460 -3.735090 -1.830419 -7.303374 11.728375 -0.152256 9.478916 -2.659899 0.622131 10.984078 1.700380 -3.175605 -10.842446 -6.973263 2.969483 29.612976 -4.532750 3.037250 -0.823370 -1.807243 -12.721539 3.845983 8.761207 -13.669684 -4.431038 96.220296 -24.593061 -26.332403 -4.157373 2.996638 0.034180 0.395840 -0.239310 0.106910 -1.358696 15.350053 6.807733 -5.808420 4.084162 -8.884534 -99.126015 24.192104 -29.811882 2.182425 -2.031466 -0.222850 0.170520 0.108930 0.016740 
0.058960 17.953690 -0.915170 -2.760942 -3.203070 -2.294102 -15.088273 13.437696 2.749078 5.105874 -0.465936 -7.991046 -7.011961 5.710175 10.408777 -0.352910 4.217054 3.226035 0.031200 -0.074660 0.012350 18.340972 -10.833599 3.010071 -1.446034 -0.562611 -4.752058 5.618462 -4.161059 5.403153 -0.120696 -3.782542 3.128967 0.085860 0.490780 0.171580 -3.729485 -1.934769 -7.385687 11.873422 -0.293282 9.812572 -3.035464 0.626273 10.156557 1.794941 -3.414917 -11.020994 -7.620523 3.469366 30.526222 -4.215920 3.273870 -1.732350 -2.213514 -12.850168 3.839754 10.583304 -11.744908 -4.561222 94.933283 -23.954533 -24.583516 -4.141139 2.939003 0.103020 0.357170 -0.225730 0.075000 -1.157626 15.662287 6.964850 -6.745552 3.063922 -9.013432 -99.426730 23.544235 -28.871601 2.199189 -1.968571 -0.260600 0.198050 0.139080 -0.013600 
0.050320 17.963030 -0.917300 -2.691526 -3.350685 -1.862421 -15.090777 13.436977 2.786341 5.037021 -0.446709 -7.887893 -7.113533 5.589721 9.518926 -0.366980 4.186660 3.241470 0.006250 -0.121400 0.003350 18.339795 -10.782816 3.040340 -1.276503 -0.539081 -4.738218 5.371047 -4.032459 4.552092 -0.119102 -3.724875 3.167033 0.052240 0.490260 0.163450 -3.722224 -2.020081 -7.454952 11.962684 -0.360536 9.904041 -3.243807 0.650586 9.305475 1.853129 -3.609382 -11.179299 -8.180881 3.740340 31.293902 -4.069370 3.315520 -1.772760 -2.558915 -13.019382 3.836851 12.415217 -10.276249 -4.534563 92.589021 -23.417393 -22.522558 -4.144186 2.907716 0.144270 0.344900 -0.223960 0.063470 -0.933861 15.993701 7.092904 -8.078559 1.928908 -9.015680 -98.913643 22.873525 -27.369874 2.213216 -1.932522 -0.278260 0.208910 0.160430 -0.029350 
0.042290 17.954600 -0.913810 -2.509687 -3.577854 -1.083556 -15.089054 13.418162 2.812056 4.727234 -0.515987 -8.305333 -7.158398 5.475249 9.043109 -0.354172 4.131338 3.278073 -0.017960 -0.156960 -0.017390 18.344089 -10.768607 3.037110 -1.153335 -0.425794 -5.285005 4.983485 -3.892207 4.279619 -0.102721 -3.649317 3.198894 0.022700 0.518190 0.173740 -3.728055 -2.023591 -7.461386 11.806714 -0.255545 9.327381 -3.340899 0.739739 8.517985 1.786408 -3.714501 -11.220740 -8.423184 3.877395 31.341834 -3.673570 3.189570 -0.989680 -2.657255 -13.026234 3.817471 14.024972 -9.380112 -4.403204 89.815440 -22.935890 -20.502551 -4.160087 2.908787 0.144160 0.352470 -0.228000 0.073810 -0.695563 16.075875 7.103217 -9.548344 0.919048 -8.782936 -97.778560 22.433975 -25.766501 2.244851 -1.923339 -0.279260 0.211640 0.167790 -0.015740 
